<?xml version="1.0" encoding="UTF-8" standalone="no"?>
<!-- Created with Inkscape (http://www.inkscape.org/) -->

<svg
   width="512"
   height="512"
   viewBox="0 0 512 512"
   version="1.1"
   id="svg5"
   inkscape:version="1.4 (e7c3feb1, 2024-10-09)"
   inkscape:export-filename="factory_01.png"
   inkscape:export-xdpi="12"
   inkscape:export-ydpi="12"
   sodipodi:docname="inkscape_assets.svg"
   xml:space="preserve"
   xmlns:inkscape="http://www.inkscape.org/namespaces/inkscape"
   xmlns:sodipodi="http://sodipodi.sourceforge.net/DTD/sodipodi-0.dtd"
   xmlns:xlink="http://www.w3.org/1999/xlink"
   xmlns="http://www.w3.org/2000/svg"
   xmlns:svg="http://www.w3.org/2000/svg"><sodipodi:namedview
     id="namedview7"
     pagecolor="#505050"
     bordercolor="#eeeeee"
     borderopacity="1"
     inkscape:showpageshadow="false"
     inkscape:pageopacity="0"
     inkscape:pagecheckerboard="false"
     inkscape:deskcolor="#57594a"
     inkscape:document-units="px"
     showgrid="true"
     inkscape:zoom="1.2093526"
     inkscape:cx="-197.21296"
     inkscape:cy="167.03152"
     inkscape:window-width="1440"
     inkscape:window-height="891"
     inkscape:window-x="0"
     inkscape:window-y="37"
     inkscape:window-maximized="0"
     inkscape:current-layer="layer1"><inkscape:grid
       type="xygrid"
       id="grid129"
       spacingx="1"
       spacingy="1"
       empspacing="8"
       dotted="false"
       originx="0"
       originy="0"
       units="px"
       visible="false"
       enabled="false" /></sodipodi:namedview><defs
     id="defs2"><color-profile
       name="sRGB-IEC61966-2.1"
       xlink:href="file:///System/Library/ColorSync/Profiles/sRGB%20Profile.icc"
       id="color-profile2" /></defs><g
     inkscape:label="Layer 1"
     inkscape:groupmode="layer"
     id="layer1"><path
       id="rect1"
       style="fill:#000000;stroke:#ffffff;stroke-width:14.8178;stroke-linecap:round;stroke-linejoin:round;paint-order:stroke fill markers"
       d="M 84.226349,-806.97818 60.761506,-610.61881 H 48.853302 c -9.534089,0 -17.208984,7.6749 -17.208984,17.20899 v 194.20312 c 0,9.53409 7.674895,17.20898 17.208984,17.20898 H 467.80643 c 9.53409,0 17.20898,-7.67489 17.20898,-17.20898 v -194.20312 c 0,-7.73493 -5.08622,-14.16943 -12.08398,-16.35157 v -114.02734 l -76.4668,60.03906 v -60.03906 l -76.46484,60.03906 v -60.03906 l -144.13086,113.16992 h -17.25196 l -15.38671,-196.35937 z" /><g
       id="g7"
       transform="matrix(0.47187241,-0.13018815,0.2906569,0.37549435,-253.54375,186.76142)"
       inkscape:export-filename="../brackeys2025-game/Assets/Images/placeholder/green_pineapple.png"
       inkscape:export-xdpi="96"
       inkscape:export-ydpi="96"><path
         style="fill:#84bc1a;fill-opacity:1;stroke:none;stroke-width:36;stroke-linecap:round;stroke-linejoin:round;paint-order:stroke fill markers"
         d="m -245.65115,173.83287 c 0,0 19.25974,-32.75459 35.09302,-41.62195 18.96581,-10.62172 64.47323,-9.7934 64.47323,-9.7934 0,0 -31.52737,-15.50441 -48.15089,-13.87399 -19.49515,1.91206 -38.08508,13.38209 -52.23148,26.93186 -9.50341,9.1026 -19.5868,34.2769 -19.5868,34.2769 z"
         id="path6"
         sodipodi:nodetypes="cacaacc" /><path
         id="path7"
         style="fill:#144828;fill-opacity:1;stroke:none;stroke-width:36;stroke-linecap:round;stroke-linejoin:round;paint-order:stroke fill markers"
         inkscape:transform-center-x="56.93699"
         inkscape:transform-center-y="24.348285"
         d="m -190.29688,112.24805 c -1.78598,0.0341 -3.46857,0.18277 -5.00781,0.4707 -19.25471,3.60179 -36.7762,16.64722 -49.68945,31.37695 -5.42942,6.19317 -10.53571,18.67363 -13.59766,27.14844 l 12.94141,2.58789 c 0,0 19.25852,-32.75373 35.0918,-41.62109 17.98826,-10.07425 59.38456,-9.84888 63.65234,-9.79883 0.18627,-0.014 0.67252,-0.0552 0.69336,-0.0566 -0.024,-0.0118 -0.27709,-0.13212 -0.36719,-0.17578 -2.16165,-0.82558 -27.19917,-10.24739 -43.7168,-9.93164 z" /></g><g
       id="g9"
       transform="matrix(-0.47187241,-0.13018815,-0.2906569,0.37549435,-402.70745,186.76142)"><path
         style="fill:#84bc1a;fill-opacity:1;stroke:none;stroke-width:36;stroke-linecap:round;stroke-linejoin:round;paint-order:stroke fill markers"
         d="m -245.65115,173.83287 c 0,0 19.25974,-32.75459 35.09302,-41.62195 18.96581,-10.62172 64.47323,-9.7934 64.47323,-9.7934 0,0 -31.52737,-15.50441 -48.15089,-13.87399 -19.49515,1.91206 -38.08508,13.38209 -52.23148,26.93186 -9.50341,9.1026 -19.5868,34.2769 -19.5868,34.2769 z"
         id="path8"
         sodipodi:nodetypes="cacaacc" /><path
         id="path9"
         style="fill:#144828;fill-opacity:1;stroke:none;stroke-width:36;stroke-linecap:round;stroke-linejoin:round;paint-order:stroke fill markers"
         inkscape:transform-center-x="56.93699"
         inkscape:transform-center-y="24.348285"
         d="m -190.29688,112.24805 c -1.78598,0.0341 -3.46857,0.18277 -5.00781,0.4707 -19.25471,3.60179 -36.7762,16.64722 -49.68945,31.37695 -5.42942,6.19317 -10.53571,18.67363 -13.59766,27.14844 l 12.94141,2.58789 c 0,0 19.25852,-32.75373 35.0918,-41.62109 17.98826,-10.07425 59.38456,-9.84888 63.65234,-9.79883 0.18627,-0.014 0.67252,-0.0552 0.69336,-0.0566 -0.024,-0.0118 -0.27709,-0.13212 -0.36719,-0.17578 -2.16165,-0.82558 -27.19917,-10.24739 -43.7168,-9.93164 z" /></g><ellipse
       style="fill:#ace540;fill-opacity:1;stroke:none;stroke-width:16.6784;stroke-linecap:round;stroke-linejoin:round;paint-order:stroke fill markers"
       id="path1"
       cx="-324.93735"
       cy="331.73398"
       rx="40.623722"
       ry="47.760323" /><path
       id="ellipse2"
       style="fill:#84bc1a;fill-opacity:1;stroke:none;stroke-width:16.6784;stroke-linecap:round;stroke-linejoin:round;paint-order:stroke fill markers"
       d="m -299.24608,294.75393 a 40.623722,47.760324 0 0 1 5.7833,24.53634 40.623722,47.760324 0 0 1 -40.62412,47.76062 40.623722,47.760324 0 0 1 -25.63903,-10.81687 40.623722,47.760324 0 0 0 34.78826,23.26021 40.623722,47.760324 0 0 0 40.62411,-47.76062 40.623722,47.760324 0 0 0 -14.93252,-36.97968 z" /><g
       id="g5"
       transform="matrix(0.4484401,0,0,0.4484401,-210.38575,209.31383)"><path
         style="fill:#84bc1a;fill-opacity:1;stroke:none;stroke-width:36;stroke-linecap:round;stroke-linejoin:round;paint-order:stroke fill markers"
         d="m -245.65115,173.83287 c 0,0 19.25974,-32.75459 35.09302,-41.62195 18.96581,-10.62172 64.47323,-9.7934 64.47323,-9.7934 0,0 -31.52737,-15.50441 -48.15089,-13.87399 -19.49515,1.91206 -38.08508,13.38209 -52.23148,26.93186 -9.50341,9.1026 -19.5868,34.2769 -19.5868,34.2769 z"
         id="path2"
         sodipodi:nodetypes="cacaacc" /><path
         id="path3"
         style="fill:#144828;fill-opacity:1;stroke:none;stroke-width:36;stroke-linecap:round;stroke-linejoin:round;paint-order:stroke fill markers"
         inkscape:transform-center-x="56.93699"
         inkscape:transform-center-y="24.348285"
         d="m -190.29688,112.24805 c -1.78598,0.0341 -3.46857,0.18277 -5.00781,0.4707 -19.25471,3.60179 -36.7762,16.64722 -49.68945,31.37695 -5.42942,6.19317 -10.53571,18.67363 -13.59766,27.14844 l 12.94141,2.58789 c 0,0 19.25852,-32.75373 35.0918,-41.62109 17.98826,-10.07425 59.38456,-9.84888 63.65234,-9.79883 0.18627,-0.014 0.67252,-0.0552 0.69336,-0.0566 -0.024,-0.0118 -0.27709,-0.13212 -0.36719,-0.17578 -2.16165,-0.82558 -27.19917,-10.24739 -43.7168,-9.93164 z" /></g><path
       style="fill:#84bc1a;fill-opacity:1;stroke:none;stroke-width:16.1438;stroke-linecap:round;stroke-linejoin:round;paint-order:stroke fill markers"
       d="m -336.78822,287.26747 c 0,0 -8.63684,-14.68847 -15.73712,-18.66496 -8.50502,-4.7632 -28.91238,-4.39175 -28.91238,-4.39175 0,0 14.13814,-6.9528 21.59279,-6.22165 8.74241,0.85745 17.07887,6.00107 23.42269,12.07732 4.26171,4.08198 8.78351,15.37114 8.78351,15.37114 z"
       id="path4"
       sodipodi:nodetypes="cacaacc" /><path
       id="path5"
       style="fill:#144828;fill-opacity:1;stroke:none;stroke-width:16.1438;stroke-linecap:round;stroke-linejoin:round;paint-order:stroke fill markers"
       inkscape:transform-center-x="-25.532829"
       inkscape:transform-center-y="10.918766"
       d="m -361.6113,259.65037 c 0.80091,0.0153 1.55545,0.0819 2.24571,0.21108 8.63459,1.61519 16.49193,7.46528 22.28274,14.07068 2.43477,2.77726 4.72463,8.374 6.09773,12.17445 l -5.80345,1.16052 c 0,0 -8.63629,-14.6881 -15.73656,-18.66458 -8.06666,-4.5177 -26.63042,-4.41663 -28.54426,-4.39418 -0.0836,-0.006 -0.30159,-0.0248 -0.31093,-0.0254 0.0107,-0.005 0.12425,-0.0593 0.16466,-0.0788 0.96936,-0.37023 12.1972,-4.59534 19.60436,-4.45375 z" /><ellipse
       style="fill:#144828;fill-opacity:1;stroke:none;stroke-width:16.1438;stroke-linecap:round;stroke-linejoin:round;paint-order:stroke fill markers"
       id="path10"
       cx="-342.26282"
       cy="315.89664"
       rx="6.2215786"
       ry="9.0773849" /><ellipse
       style="fill:#008080;fill-opacity:1;stroke:none;stroke-width:16.1438;stroke-linecap:round;stroke-linejoin:round;paint-order:stroke fill markers"
       id="path11"
       cx="-340.73291"
       cy="318.03848"
       rx="2.6518207"
       ry="4.0797238" /><ellipse
       style="fill:#144828;fill-opacity:1;stroke:none;stroke-width:16.1438;stroke-linecap:round;stroke-linejoin:round;paint-order:stroke fill markers"
       id="ellipse11"
       cx="-315.35638"
       cy="315.89664"
       rx="6.2215786"
       ry="9.0773849" /><ellipse
       style="fill:#008080;fill-opacity:1;stroke:none;stroke-width:16.1438;stroke-linecap:round;stroke-linejoin:round;paint-order:stroke fill markers"
       id="ellipse12"
       cx="-313.82651"
       cy="318.03848"
       rx="2.6518207"
       ry="4.0797238" /><path
       style="fill:none;fill-opacity:1;stroke:#144828;stroke-width:5.38128;stroke-linecap:round;stroke-linejoin:round;stroke-dasharray:none;stroke-opacity:1;paint-order:stroke fill markers"
       d="m -347.26048,351.6962 c 0,0 11.0569,-14.39586 18.97072,-14.27903 7.83603,0.11567 18.35874,14.68701 18.35874,14.68701"
       id="path12"
       sodipodi:nodetypes="cac" /></g></svg>
